<svg id="Capa_1" data-name="Capa 1" xmlns="http://www.w3.org/2000/svg" viewBox="0 0 30 25"><path d="M27.51,14.71,30,4.56a1.19,1.19,0,0,0-1.22-1.43H8.29L7.81.94A1.22,1.22,0,0,0,6.59,0H1.25A1.21,1.21,0,0,0,0,1.17V2A1.22,1.22,0,0,0,1.25,3.13H4.89L8.55,19.89a2.72,2.72,0,0,0-1.47,2.38A2.83,2.83,0,0,0,10,25a2.83,2.83,0,0,0,2.92-2.73,2.66,2.66,0,0,0-.88-2H23a2.66,2.66,0,0,0-.88,2,2.93,2.93,0,0,0,5.84,0,2.73,2.73,0,0,0-1.65-2.47l.29-1.18a1.19,1.19,0,0,0-1.22-1.43h-14L11,15.63H26.29A1.24,1.24,0,0,0,27.51,14.71Z"/></svg>